<svg width="123" height="46" viewBox="0 0 123 46" fill="none" xmlns="http://www.w3.org/2000/svg">
<path d="M6.84375 9.11719V22.5703H13.5703C14.4922 22.5703 15.3594 22.3984 16.1719 22.0547C16.9844 21.6953 17.6953 21.2109 18.3047 20.6016C18.9141 19.9922 19.3906 19.2812 19.7344 18.4688C20.0938 17.6406 20.2734 16.7656 20.2734 15.8438C20.2734 14.9219 20.0938 14.0547 19.7344 13.2422C19.3906 12.4141 18.9141 11.6953 18.3047 11.0859C17.6953 10.4766 16.9844 10 16.1719 9.65625C15.3594 9.29688 14.4922 9.11719 13.5703 9.11719H6.84375ZM6.84375 36H0.117188V2.39062H13.5703C14.8047 2.39062 15.9922 2.55469 17.1328 2.88281C18.2734 3.19531 19.3359 3.64844 20.3203 4.24219C21.3203 4.82031 22.2266 5.52344 23.0391 6.35156C23.8672 7.16406 24.5703 8.07031 25.1484 9.07031C25.7422 10.0703 26.1953 11.1406 26.5078 12.2812C26.8359 13.4219 27 14.6094 27 15.8438C27 17.6875 26.6484 19.4297 25.9453 21.0703C25.2422 22.6953 24.2812 24.1172 23.0625 25.3359C21.8438 26.5547 20.4141 27.5156 18.7734 28.2188C17.1484 28.9219 15.4141 29.2734 13.5703 29.2734H6.84375V36ZM36.7266 36H30.2812V0.914062H36.7266V36ZM103.664 45.5625H97.2188V10.8984H98.7656L101.32 13.9219C101.898 13.375 102.531 12.8594 103.219 12.375C103.906 11.8906 104.617 11.4766 105.352 11.1328C106.102 10.7734 106.875 10.4922 107.672 10.2891C108.469 10.0859 109.273 9.98438 110.086 9.98438C111.852 9.98438 113.508 10.3047 115.055 10.9453C116.617 11.5703 117.977 12.4609 119.133 13.6172C120.305 14.7734 121.227 16.1719 121.898 17.8125C122.57 19.4375 122.906 21.2422 122.906 23.2266C122.906 25.2891 122.57 27.1484 121.898 28.8047C121.227 30.4453 120.305 31.8438 119.133 33C117.977 34.1406 116.617 35.0156 115.055 35.625C113.508 36.2344 111.852 36.5391 110.086 36.5391C109.523 36.5391 108.961 36.4766 108.398 36.3516C107.852 36.2266 107.305 36.0625 106.758 35.8594C106.227 35.6406 105.695 35.3984 105.164 35.1328C104.648 34.8672 104.148 34.5938 103.664 34.3125V45.5625ZM116.484 23.2266C116.484 22.1641 116.312 21.2109 115.969 20.3672C115.641 19.5234 115.188 18.8125 114.609 18.2344C114.031 17.6406 113.352 17.1875 112.57 16.875C111.789 16.5625 110.961 16.4062 110.086 16.4062C109.211 16.4062 108.383 16.5625 107.602 16.875C106.836 17.1875 106.164 17.6406 105.586 18.2344C105.008 18.8125 104.547 19.5234 104.203 20.3672C103.875 21.2109 103.711 22.1641 103.711 23.2266C103.711 24.2422 103.875 25.1719 104.203 26.0156C104.547 26.8594 105.008 27.5781 105.586 28.1719C106.164 28.7656 106.836 29.2266 107.602 29.5547C108.383 29.8828 109.211 30.0469 110.086 30.0469C110.961 30.0469 111.789 29.8828 112.57 29.5547C113.352 29.2266 114.031 28.7656 114.609 28.1719C115.188 27.5781 115.641 26.8594 115.969 26.0156C116.312 25.1719 116.484 24.2422 116.484 23.2266Z" fill="black"/>
<path d="M65.8828 23.2266C65.8828 25.1016 65.5469 26.8516 64.875 28.4766C64.2031 30.0859 63.2891 31.4844 62.1328 32.6719C60.9766 33.8438 59.6172 34.7734 58.0547 35.4609C56.5078 36.1328 54.8438 36.4688 53.0625 36.4688C51.2969 36.4688 49.6328 36.1328 48.0703 35.4609C46.5234 34.7734 45.1641 33.8438 43.9922 32.6719C42.8359 31.4844 41.9219 30.0859 41.25 28.4766C40.5781 26.8516 40.2422 25.1016 40.2422 23.2266C40.2422 21.3203 40.5781 19.5547 41.25 17.9297C41.9219 16.3047 42.8359 14.9062 43.9922 13.7344C45.1641 12.5469 46.5234 11.6172 48.0703 10.9453C49.6328 10.2734 51.2969 9.9375 53.0625 9.9375C54.8438 9.9375 56.5078 10.2578 58.0547 10.8984C59.6172 11.5234 60.9766 12.4219 62.1328 13.5938C63.2891 14.75 64.2031 16.1484 64.875 17.7891C65.5469 19.4141 65.8828 21.2266 65.8828 23.2266ZM59.4375 23.2266C59.4375 22.1953 59.2656 21.2656 58.9219 20.4375C58.5938 19.5938 58.1406 18.875 57.5625 18.2812C56.9844 17.6719 56.3047 17.2109 55.5234 16.8984C54.7578 16.5703 53.9375 16.4062 53.0625 16.4062C52.1875 16.4062 51.3594 16.5703 50.5781 16.8984C49.8125 17.2109 49.1406 17.6719 48.5625 18.2812C48 18.875 47.5547 19.5938 47.2266 20.4375C46.8984 21.2656 46.7344 22.1953 46.7344 23.2266C46.7344 24.1953 46.8984 25.0938 47.2266 25.9219C47.5547 26.75 48 27.4688 48.5625 28.0781C49.1406 28.6875 49.8125 29.1719 50.5781 29.5312C51.3594 29.875 52.1875 30.0469 53.0625 30.0469C53.9375 30.0469 54.7578 29.8828 55.5234 29.5547C56.3047 29.2266 56.9844 28.7656 57.5625 28.1719C58.1406 27.5781 58.5938 26.8594 58.9219 26.0156C59.2656 25.1719 59.4375 24.2422 59.4375 23.2266ZM93.6797 23.2266C93.6797 25.1016 93.3438 26.8516 92.6719 28.4766C92 30.0859 91.0859 31.4844 89.9297 32.6719C88.7734 33.8438 87.4141 34.7734 85.8516 35.4609C84.3047 36.1328 82.6406 36.4688 80.8594 36.4688C79.0938 36.4688 77.4297 36.1328 75.8672 35.4609C74.3203 34.7734 72.9609 33.8438 71.7891 32.6719C70.6328 31.4844 69.7188 30.0859 69.0469 28.4766C68.375 26.8516 68.0391 25.1016 68.0391 23.2266C68.0391 21.3203 68.375 19.5547 69.0469 17.9297C69.7188 16.3047 70.6328 14.9062 71.7891 13.7344C72.9609 12.5469 74.3203 11.6172 75.8672 10.9453C77.4297 10.2734 79.0938 9.9375 80.8594 9.9375C82.6406 9.9375 84.3047 10.2578 85.8516 10.8984C87.4141 11.5234 88.7734 12.4219 89.9297 13.5938C91.0859 14.75 92 16.1484 92.6719 17.7891C93.3438 19.4141 93.6797 21.2266 93.6797 23.2266ZM87.2344 23.2266C87.2344 22.1953 87.0625 21.2656 86.7188 20.4375C86.3906 19.5938 85.9375 18.875 85.3594 18.2812C84.7812 17.6719 84.1016 17.2109 83.3203 16.8984C82.5547 16.5703 81.7344 16.4062 80.8594 16.4062C79.9844 16.4062 79.1562 16.5703 78.375 16.8984C77.6094 17.2109 76.9375 17.6719 76.3594 18.2812C75.7969 18.875 75.3516 19.5938 75.0234 20.4375C74.6953 21.2656 74.5312 22.1953 74.5312 23.2266C74.5312 24.1953 74.6953 25.0938 75.0234 25.9219C75.3516 26.75 75.7969 27.4688 76.3594 28.0781C76.9375 28.6875 77.6094 29.1719 78.375 29.5312C79.1562 29.875 79.9844 30.0469 80.8594 30.0469C81.7344 30.0469 82.5547 29.8828 83.3203 29.5547C84.1016 29.2266 84.7812 28.7656 85.3594 28.1719C85.9375 27.5781 86.3906 26.8594 86.7188 26.0156C87.0625 25.1719 87.2344 24.2422 87.2344 23.2266Z" fill="#6C4800"/>
</svg>
